<svg version="1.1" id="Layer_1" xmlns="http://www.w3.org/2000/svg" xmlns:xlink="http://www.w3.org/1999/xlink" x="0px" y="0px"
	 width="100%" viewBox="0 0 229 221" enable-background="new 0 0 229 221" xml:space="preserve">
<path fill="#FCCD50" opacity="1.000000" stroke="none" 
	d="
M1.000000,94.000000 
	C1.000000,90.307091 1.000000,86.614182 1.177967,82.864235 
	C6.929395,77.783798 13.555661,74.903229 20.891647,73.934685 
	C38.659206,71.588867 56.467545,69.550247 74.227562,67.151726 
	C75.879715,66.928604 78.022423,65.355644 78.721519,63.846291 
	C84.290062,51.823872 89.405045,39.591248 94.981544,27.572691 
	C99.230858,18.414528 103.464760,9.158619 111.382164,2.332547 
	C111.528763,2.206151 111.139328,1.458031 111.000000,1.000000 
	C114.030594,1.000000 117.061188,1.000000 120.149612,1.180596 
	C129.887115,11.060671 135.259109,23.378948 140.769684,35.563210 
	C145.403458,45.808853 149.560242,56.269882 154.161240,66.531067 
	C154.818237,67.996300 156.682877,69.694283 158.170242,69.887695 
	C168.040039,71.171074 178.008438,71.740517 187.849289,73.190254 
	C198.484634,74.757042 209.071594,76.781624 219.562210,79.130951 
	C223.221420,79.950424 226.530838,82.331886 230.000000,84.000000 
	C230.000000,87.361290 230.000000,90.722572 229.787354,94.168259 
	C227.543930,96.816216 225.769058,99.643982 223.440155,101.899750 
	C209.965912,114.950882 196.437271,127.948753 182.730759,140.754547 
	C180.231812,143.089279 179.408600,145.167831 180.161850,148.445572 
	C182.165527,157.164673 184.469879,165.872162 185.613159,174.718857 
	C187.642075,190.418533 194.662689,206.185898 186.000000,222.000000 
	C181.975449,222.000000 177.950912,222.000000 173.753754,221.696838 
	C155.141632,211.731827 136.654114,202.159393 118.310097,192.319473 
	C115.277885,190.692947 113.265526,190.959686 110.317238,192.523972 
	C92.631348,201.907516 74.779396,210.977905 57.013306,220.211380 
	C56.503407,220.476395 56.330196,221.389236 56.000000,222.000000 
	C51.975456,222.000000 47.950912,222.000000 43.766396,221.720764 
	C42.735985,220.444977 41.227665,219.523209 41.100590,218.439468 
	C40.378262,212.279190 38.775124,205.888870 39.716736,199.931671 
	C42.172913,184.392456 45.414402,168.945602 49.116520,153.649200 
	C50.837055,146.540314 51.050301,141.009613 43.852013,137.047852 
	C41.577904,135.796234 39.777306,133.650696 37.836391,131.832718 
	C25.243242,120.037163 11.579984,109.233490 2.653635,94.013916 
	C2.510532,93.769913 1.568957,93.994225 1.000000,94.000000 
M68.475929,80.016190 
	C60.374500,80.704033 52.234043,81.097542 44.182987,82.165237 
	C36.633736,83.166382 29.075329,84.485481 21.718140,86.416100 
	C16.545546,87.773453 15.496818,91.608818 18.504910,96.124069 
	C20.613243,99.288750 22.893036,102.487228 25.684637,105.022827 
	C37.243984,115.522141 48.903645,125.921082 60.825531,136.003250 
	C63.419163,138.196655 63.566963,140.014786 62.875423,142.782486 
	C60.738914,151.333282 58.581696,159.883789 56.713524,168.495392 
	C54.706791,177.745697 52.856045,187.036942 51.241257,196.362976 
	C49.890800,204.162399 54.275185,207.679672 61.892960,205.155792 
	C63.937229,204.478516 65.956955,203.624588 67.842628,202.587524 
	C82.127815,194.731186 96.418457,186.882477 110.599724,178.841507 
	C113.232552,177.348648 115.156296,177.097717 117.850731,178.766312 
	C125.343948,183.406738 132.923004,187.945358 140.713623,192.059311 
	C150.247940,197.094040 159.896790,201.964996 169.769989,206.280106 
	C174.057632,208.154037 176.983887,205.759293 176.907303,200.998276 
	C176.816879,195.377167 176.494736,189.677399 175.442596,184.170410 
	C172.854523,170.624069 169.727829,157.181259 167.005920,143.658951 
	C166.701904,142.148560 167.048538,139.795715 168.051483,138.855057 
	C172.769806,134.429749 177.899033,130.447052 182.739197,126.146133 
	C191.556107,118.311516 200.588196,110.681458 208.945297,102.377129 
	C218.040833,93.339012 216.622543,88.093842 204.124176,86.008949 
	C189.754395,83.611877 175.149780,82.622696 160.119934,80.680817 
	C155.806854,75.848022 150.808121,72.432838 143.955276,72.115723 
	C136.996323,56.489265 130.354202,40.710350 122.940323,25.302799 
	C119.408806,17.963577 113.396309,17.814531 109.285347,24.815592 
	C104.497406,32.969570 100.458992,41.597179 96.559814,50.229076 
	C93.355743,57.322189 90.830856,64.722107 87.129158,72.004929 
	C79.513481,70.912231 74.315948,75.169434 68.475929,80.016190 
z"/>
<path fill="#010000" opacity="1.000000" stroke="none" 
	d="
M230.000000,83.531342 
	C226.530838,82.331886 223.221420,79.950424 219.562210,79.130951 
	C209.071594,76.781624 198.484634,74.757042 187.849289,73.190254 
	C178.008438,71.740517 168.040039,71.171074 158.170242,69.887695 
	C156.682877,69.694283 154.818237,67.996300 154.161240,66.531067 
	C149.560242,56.269882 145.403458,45.808853 140.769684,35.563210 
	C135.259109,23.378948 129.887115,11.060671 120.603729,1.180596 
	C157.250366,1.000000 193.500732,1.000000 230.000000,1.000000 
	C230.000000,28.353724 230.000000,55.708202 230.000000,83.531342 
z"/>
<path fill="#000000" opacity="1.000000" stroke="none" 
	d="
M110.531342,1.000000 
	C111.139328,1.458031 111.528763,2.206151 111.382164,2.332547 
	C103.464760,9.158619 99.230858,18.414528 94.981544,27.572691 
	C89.405045,39.591248 84.290062,51.823872 78.721519,63.846291 
	C78.022423,65.355644 75.879715,66.928604 74.227562,67.151726 
	C56.467545,69.550247 38.659206,71.588867 20.891647,73.934685 
	C13.555661,74.903229 6.929395,77.783798 1.177967,82.403595 
	C1.000000,55.061977 1.000000,28.123957 1.000000,1.000000 
	C37.354015,1.000000 73.708351,1.000000 110.531342,1.000000 
z"/>
<path fill="#010100" opacity="1.000000" stroke="none" 
	d="
M186.468658,222.000000 
	C194.662689,206.185898 187.642075,190.418533 185.613159,174.718857 
	C184.469879,165.872162 182.165527,157.164673 180.161850,148.445572 
	C179.408600,145.167831 180.231812,143.089279 182.730759,140.754547 
	C196.437271,127.948753 209.965912,114.950882 223.440155,101.899750 
	C225.769058,99.643982 227.543930,96.816216 229.787354,94.626328 
	C230.000000,137.224747 230.000000,179.449509 230.000000,222.000000 
	C215.647415,222.000000 201.292358,222.000000 186.468658,222.000000 
z"/>
<path fill="#010100" opacity="1.000000" stroke="none" 
	d="
M1.000000,94.468658 
	C1.568957,93.994225 2.510532,93.769913 2.653635,94.013916 
	C11.579984,109.233490 25.243242,120.037163 37.836391,131.832718 
	C39.777306,133.650696 41.577904,135.796234 43.852013,137.047852 
	C51.050301,141.009613 50.837055,146.540314 49.116520,153.649200 
	C45.414402,168.945602 42.172913,184.392456 39.716736,199.931671 
	C38.775124,205.888870 40.378262,212.279190 41.100590,218.439468 
	C41.227665,219.523209 42.735985,220.444977 43.303211,221.720764 
	C29.036118,222.000000 15.072236,222.000000 1.000000,222.000000 
	C1.000000,179.645828 1.000000,137.291580 1.000000,94.468658 
z"/>
<path fill="#020201" opacity="1.000000" stroke="none" 
	d="
M56.468658,222.000000 
	C56.330196,221.389236 56.503407,220.476395 57.013306,220.211380 
	C74.779396,210.977905 92.631348,201.907516 110.317238,192.523972 
	C113.265526,190.959686 115.277885,190.692947 118.310097,192.319473 
	C136.654114,202.159393 155.141632,211.731827 173.290588,221.696838 
	C134.312439,222.000000 95.624878,222.000000 56.468658,222.000000 
z"/>
<path fill="#FBFE51" opacity="1.000000" stroke="none" 
	d="
M160.647156,81.022003 
	C175.149780,82.622696 189.754395,83.611877 204.124176,86.008949 
	C216.622543,88.093842 218.040833,93.339012 208.945297,102.377129 
	C200.588196,110.681458 191.556107,118.311516 182.739197,126.146133 
	C177.899033,130.447052 172.769806,134.429749 168.051483,138.855057 
	C167.048538,139.795715 166.701904,142.148560 167.005920,143.658951 
	C169.727829,157.181259 172.854523,170.624069 175.442596,184.170410 
	C176.494736,189.677399 176.816879,195.377167 176.907303,200.998276 
	C176.983887,205.759293 174.057632,208.154037 169.769989,206.280106 
	C159.896790,201.964996 150.247940,197.094040 140.713623,192.059311 
	C132.923004,187.945358 125.343948,183.406738 117.850731,178.766312 
	C115.156296,177.097717 113.232552,177.348648 110.599724,178.841507 
	C96.418457,186.882477 82.127815,194.731186 67.842628,202.587524 
	C65.956955,203.624588 63.937229,204.478516 61.892960,205.155792 
	C54.275185,207.679672 49.890800,204.162399 51.241257,196.362976 
	C52.856045,187.036942 54.706791,177.745697 56.713524,168.495392 
	C58.581696,159.883789 60.738914,151.333282 62.875423,142.782486 
	C63.566963,140.014786 63.419163,138.196655 60.825531,136.003250 
	C48.903645,125.921082 37.243984,115.522141 25.684637,105.022827 
	C22.893036,102.487228 20.613243,99.288750 18.504910,96.124069 
	C15.496818,91.608818 16.545546,87.773453 21.718140,86.416100 
	C29.075329,84.485481 36.633736,83.166382 44.182987,82.165237 
	C52.234043,81.097542 60.374500,80.704033 68.782639,80.346832 
	C62.513474,89.877159 62.391125,90.255943 65.245369,94.108299 
	C66.621162,92.644241 67.961418,91.278778 69.232323,89.851555 
	C71.218742,87.620804 72.989952,85.170464 75.149216,83.126831 
	C81.566078,77.053596 87.741966,77.054794 93.940544,83.236717 
	C96.391670,85.681259 98.215149,88.745728 100.580139,91.290245 
	C101.668495,92.461220 103.372421,93.060074 104.797218,93.918350 
	C104.881165,92.116707 105.601997,90.028786 104.942383,88.561378 
	C101.491653,80.884750 96.262840,74.838089 88.004944,71.986038 
	C90.830856,64.722107 93.355743,57.322189 96.559814,50.229076 
	C100.458992,41.597179 104.497406,32.969570 109.285347,24.815592 
	C113.396309,17.814531 119.408806,17.963577 122.940323,25.302799 
	C130.354202,40.710350 136.996323,56.489265 143.589783,72.565903 
	C134.234192,75.280235 128.873199,81.654037 125.022339,89.507889 
	C124.408867,90.759071 125.251862,92.724388 125.421509,94.359550 
	C126.756371,93.593857 128.342667,93.073471 129.376373,92.013962 
	C131.921707,89.405060 133.993057,86.311821 136.651154,83.839218 
	C142.708572,78.204506 148.880569,78.235878 154.695129,84.032883 
	C157.493973,86.823273 159.590912,90.305443 162.206772,93.298637 
	C163.056015,94.270401 164.543594,94.684296 165.739212,95.353363 
	C165.968979,93.866547 166.836227,92.083946 166.309265,90.948257 
	C164.711655,87.505058 162.574265,84.312317 160.647156,81.022003 
M103.087990,115.886147 
	C94.483154,115.886147 85.878311,115.886147 77.269844,115.886147 
	C75.903015,134.951019 94.300964,155.036469 114.059113,156.008850 
	C134.963181,157.037613 154.957001,138.157394 155.329605,116.029449 
	C138.545059,116.029449 121.768089,116.029449 104.501709,115.947418 
	C104.501709,115.947418 104.015327,116.045776 103.087990,115.886147 
z"/>
<path fill="#FE4743" opacity="1.000000" stroke="none" 
	d="
M160.383545,80.851410 
	C162.574265,84.312317 164.711655,87.505058 166.309265,90.948257 
	C166.836227,92.083946 165.968979,93.866547 165.739212,95.353363 
	C164.543594,94.684296 163.056015,94.270401 162.206772,93.298637 
	C159.590912,90.305443 157.493973,86.823273 154.695129,84.032883 
	C148.880569,78.235878 142.708572,78.204506 136.651154,83.839218 
	C133.993057,86.311821 131.921707,89.405060 129.376373,92.013962 
	C128.342667,93.073471 126.756371,93.593857 125.421509,94.359550 
	C125.251862,92.724388 124.408867,90.759071 125.022339,89.507889 
	C128.873199,81.654037 134.234192,75.280235 143.587524,72.938255 
	C150.808121,72.432838 155.806854,75.848022 160.383545,80.851410 
z"/>
<path fill="#FE4743" opacity="1.000000" stroke="none" 
	d="
M87.567047,71.995483 
	C96.262840,74.838089 101.491653,80.884750 104.942383,88.561378 
	C105.601997,90.028786 104.881165,92.116707 104.797218,93.918350 
	C103.372421,93.060074 101.668495,92.461220 100.580139,91.290245 
	C98.215149,88.745728 96.391670,85.681259 93.940544,83.236717 
	C87.741966,77.054794 81.566078,77.053596 75.149216,83.126831 
	C72.989952,85.170464 71.218742,87.620804 69.232323,89.851555 
	C67.961418,91.278778 66.621162,92.644241 65.245369,94.108299 
	C62.391125,90.255943 62.513474,89.877159 69.238823,80.350609 
	C74.315948,75.169434 79.513481,70.912231 87.567047,71.995483 
z"/>
<path fill="#FF4443" opacity="1.000000" stroke="none" 
	d="
M104.991112,116.029449 
	C121.768089,116.029449 138.545059,116.029449 155.329605,116.029449 
	C154.957001,138.157394 134.963181,157.037613 114.059113,156.008850 
	C94.300964,155.036469 75.903015,134.951019 77.269844,115.886147 
	C85.878311,115.886147 94.483154,115.886147 103.659622,116.071579 
	C104.231247,116.257011 104.646599,116.306923 104.646599,116.306923 
	C104.646599,116.306923 104.991112,116.029449 104.991112,116.029449 
z"/>
<path fill="#FE3242" opacity="1.000000" stroke="none" 
	d="
M104.746414,115.988434 
	C104.991112,116.029449 104.646599,116.306923 104.646599,116.306923 
	C104.646599,116.306923 104.231247,116.257011 104.123291,116.151398 
	C104.015327,116.045776 104.501709,115.947418 104.746414,115.988434 
z"/>
</svg>